<svg width="18" height="18" viewBox="0 0 18 18" fill="none" xmlns="http://www.w3.org/2000/svg">
<path d="M8.46375 15.4144C8.79102 15.2065 9.20898 15.2065 9.53625 15.4144L13.146 17.7078C13.8975 18.1852 14.8512 17.5165 14.6586 16.6473L13.6653 12.1652C13.5878 11.8156 13.7032 11.4512 13.9678 11.2099L17.3193 8.15367C17.9624 7.56725 17.6013 6.49614 16.7344 6.41873L12.42 6.03342C12.0456 5.99999 11.7216 5.75951 11.5813 5.41088L9.92763 1.30387C9.59129 0.468538 8.40871 0.468539 8.07237 1.30387L6.41872 5.41088C6.27836 5.75951 5.95438 5.99999 5.58005 6.03342L1.26555 6.41873C0.398691 6.49614 0.0376164 7.56725 0.680695 8.15367L4.03223 11.2099C4.29684 11.4512 4.41222 11.8156 4.33474 12.1652L3.3414 16.6473C3.14877 17.5165 4.10252 18.1852 4.85396 17.7078L8.46375 15.4144Z"/>
</svg>
